inDegrees=yes
name=ik_S56_A05_T01
DataType=double
version=3
OpenSimVersion=4.3-2021-08-27-4bc7ad9
endheader
time	pelvis_tilt	pelvis_list	pelvis_rotation	pelvis_tx	pelvis_ty	pelvis_tz	hip_flexion_r	hip_adduction_r	hip_rotation_r	knee_angle_r	knee_angle_r_beta	ankle_angle_r	subtalar_angle_r	mtp_angle_r	hip_flexion_l	hip_adduction_l	hip_rotation_l	knee_angle_l	knee_angle_l_beta	ankle_angle_l	subtalar_angle_l	mtp_angle_l	lumbar_extension	lumbar_bending	lumbar_rotation	arm_flex_r	arm_add_r	arm_rot_r	elbow_flex_r	pro_sup_r	wrist_flex_r	wrist_dev_r	arm_flex_l	arm_add_l	arm_rot_l	elbow_flex_l	pro_sup_l	wrist_flex_l	wrist_dev_l
14.43999999999978	-5.932488216879387	-3.975428590380555	34.86974684138919	0	0.9399999999999999	0	45.1029288337085	-9.996920367547222	-10.16459989736214	54.51590452279613	0.9514820286256606	0	0	0	45.1029288337085	-9.996920367547222	-10.16459989736214	54.51590452279613	0.9514820286256606	0	0	0	-5.310296185415385	-3.800010431292964	5.720501333997232	57.28444531184894	11.21703951022713	24.86426278581072	53.53072261481223	112.5484614364646	0	0	28.28995806823835	-5.381562712076218	1.866485552429253	43.47698469711297	129.4415826013064	0	0
14.45999999999978	-5.935611325771582	-3.972197721001899	34.82702461178422	0	0.9399999999999999	0	45.10289665012046	-9.996923730222049	-10.16448460132123	54.51600592660603	0.9514837984560175	0	0	0	45.10289665012046	-9.996923730222049	-10.16448460132123	54.51600592660603	0.9514837984560175	0	0	0	-5.310803781092055	-3.796204867941281	5.731065566363337	57.2633784880048	11.13952772615415	24.7017777679829	53.88022311451054	112.4674410502709	0	0	28.27572608015435	-5.420205339407206	1.873858842546465	43.48245745005248	129.4650592481332	0	0
14.47999999999978	-5.951762174863294	-3.959760552862734	34.77164072706657	0	0.9399999999999999	0	45.10287184588066	-9.996926308251986	-10.16439604050223	54.51608442307181	0.9514851684777964	0	0	0	45.10287184588066	-9.996926308251986	-10.16439604050223	54.51608442307181	0.9514851684777964	0	0	0	-5.318159275282052	-3.774242874932999	5.71815004978191	57.29427978313904	11.14365948095509	24.72284620367765	54.13681741773304	112.424393969007	0	5.38806921148701e-36	28.25031185815666	-5.444690358196732	1.860154794016915	43.51000658798043	129.4063850015667	0	5.38806921148701e-36
14.49999999999978	-5.952570358321929	-3.953362150948808	34.7200172189159	0	0.9399999999999999	0	45.10283058337464	-9.996930622069991	-10.16424812542102	54.51621420168239	0.9514874335418496	0	0	0	45.10283058337464	-9.996930622069991	-10.16424812542102	54.51621420168239	0.9514874335418496	0	0	0	-5.314830889262638	-3.769489884579539	5.732536584956262	57.29536306624784	11.07805754945518	24.47048261102221	54.53017361626342	112.4852713314201	0	0	28.1979126272877	-5.491411317276823	1.905971742955219	43.54378366298821	129.3672378632841	0	0
14.51999999999978	-5.971202276037947	-3.92903104739039	34.65032275448888	0	0.9399999999999999	0	45.10282000577131	-9.996931717561317	-10.16421043995715	54.51624775341946	0.9514880191301314	0	0	0	45.10282000577131	-9.996931717561317	-10.16421043995715	54.51624775341946	0.9514880191301314	0	0	0	-5.317229816312714	-3.736947706337131	5.722218708146583	57.29766858500788	11.01711604477623	24.3162392179683	54.54594866675808	112.5274061285106	0	0	28.16406277270559	-5.499981367698717	1.867268735812501	43.55192179202386	129.3359933399257	0	0
14.53999999999978	-5.983332057568935	-3.911762626516834	34.55130495191622	0	0.9399999999999999	0	45.10277112511121	-9.996936824897727	-10.16403524221508	54.51640140244849	0.9514907008115805	0	0	0	45.10277112511121	-9.996936824897727	-10.16403524221508	54.51640140244849	0.9514907008115805	0	0	0	-5.318350964216947	-3.713934295310986	5.717627255643235	57.3306138897437	10.94366924341906	24.01380553629888	54.93236043282484	112.6381915773577	0	0	28.10911304511578	-5.528987820842704	1.835800808672663	43.6093482840399	129.2622050932805	0	0
14.55999999999978	-5.983569004710697	-3.915822121227039	34.51415424987979	0	0.9399999999999999	0	45.10274212866016	-9.996939842680737	-10.16393156942279	54.51649282277357	0.9514922963972563	0	0	0	45.10274212866016	-9.996939842680737	-10.16393156942279	54.51649282277357	0.9514922963972563	0	0	0	-5.318530697172783	-3.722676221146026	5.764274745336524	57.39039989201881	10.78860223202449	23.61043631799997	55.28159143227849	112.6591826645138	0	0	28.10657368640015	-5.577480142440578	1.914107176302246	43.62703242000291	129.2379503813665	0	0
14.57999999999978	-5.994362205970039	-3.894911530004559	34.41684872761162	0	0.9399999999999999	0	45.10268738959039	-9.996945552455355	-10.16373553266125	54.51666489670833	0.9514952996539748	0	0	0	45.10268738959039	-9.996945552455355	-10.16373553266125	54.51666489670833	0.9514952996539748	0	0	0	-5.316378143449684	-3.697845301007006	5.763600007523733	57.44838208718451	10.66816908551857	23.32832239529812	55.73622430748251	112.6593528543255	0	0	28.05647202171897	-5.590843069791435	1.848480434570493	43.64111408310388	129.1989794861243	0	0
14.59999999999978	-5.993709799760377	-3.881898164924445	34.30039887880996	0	0.9399999999999999	0	45.10264214756951	-9.996950259398661	-10.16357375172721	54.5168073195004	0.9514977854006262	0	0	0	45.10264214756951	-9.996950259398661	-10.16357375172721	54.5168073195004	0.9514977854006262	0	0	0	-5.305772551060069	-3.694088542761847	5.822492886527684	57.52899948473669	10.43974499828741	22.60195067205662	56.43659928635148	112.4667815125465	0	0	28.01858246429963	-5.609252627132761	1.844980604542615	43.66052958619964	129.1860945910571	0	0
14.61999999999978	-5.994887646364071	-3.866852942722163	34.21467757842775	0	0.9399999999999999	0	45.10262434798017	-9.996952098449	-10.163510386831	54.51686368958583	0.9514987692442166	0	0	0	45.10262434798017	-9.996952098449	-10.163510386831	54.51686368958583	0.9514987692442166	0	0	0	-5.298185668869977	-3.681332919670778	5.828719322544042	57.58329317823214	10.35924541646301	22.29357645422543	56.68545878576867	112.2642162265677	0	0	27.97169311858326	-5.632119752099925	1.797800616043491	43.67195225226089	129.180412911211	0	0
14.63999999999978	-5.986890789407851	-3.875535592043748	34.1699641759749	0	0.9399999999999999	0	45.10259911310403	-9.996954599493757	-10.16342298311428	54.51694669901124	0.9515002180320001	0	0	0	45.10259911310403	-9.996954599493757	-10.16342298311428	54.51694669901124	0.9515002180320001	0	0	0	-5.296076249619564	-3.693659116457604	5.838208597510423	57.58183107246677	10.36821132643686	22.24666738090398	57.0078305111428	111.6779700371386	0	0	27.97236843741838	-5.670919995798003	1.777274798559447	43.66919460467561	129.187810150737	0	0
14.65999999999978	-5.979242341862914	-3.865724455471189	34.10037979894481	0	0.9399999999999999	0	45.10257199701094	-9.996957401993937	-10.16332641290709	54.51703246168533	0.9515017148730384	0	0	0	45.10257199701094	-9.996957401993937	-10.16332641290709	54.51703246168533	0.9515017148730384	0	0	0	-5.282464938684525	-3.694136608065747	5.874852040294468	57.62028381005446	10.23571754138446	21.93310175994243	57.23629484145428	110.9998629979343	0	0	27.9017475100278	-5.723815001187961	1.802856610310592	43.71579355876839	129.1601323015457	0	0
